<?xml version="1.0" encoding="iso-8859-1"?>
<!-- Uploaded to: SVG Repo, www.svgrepo.com, Generator: SVG Repo Mixer Tools -->
<svg fill="#fdf7de" height="800px" width="800px" version="1.1" id="Layer_1" xmlns="http://www.w3.org/2000/svg" xmlns:xlink="http://www.w3.org/1999/xlink" 
	 viewBox="0 0 512 512" xml:space="preserve">
<g>
	<g>
		<g>
			<path d="M83.819,418.621h128.879c10.345,0,18.732-8.387,18.732-18.732v-67.778c0-10.345-8.387-18.732-18.732-18.732H83.819
				c-10.345,0-18.732,8.387-18.732,18.732v67.778C65.088,410.234,73.474,418.621,83.819,418.621z M102.551,350.842h91.416v30.314
				h-91.416V350.842z"/>
			<path d="M83.819,297.859h344.361c10.345,0,18.732-8.387,18.732-18.732v-76.284c0-10.345-8.387-18.732-18.732-18.732H83.819
				c-10.345,0-18.732,8.387-18.732,18.732v76.284C65.088,289.474,73.474,297.859,83.819,297.859z M102.551,221.576h306.898v38.821
				H102.551V221.576z"/>
			<path d="M493.268,28.292H18.732C8.387,28.292,0,36.679,0,47.024c0,9.041,0,409.408,0,417.952
				c0,10.345,8.387,18.732,18.732,18.732h474.537c10.345,0,18.732-8.387,18.732-18.732c0-8.543,0-408.911,0-417.952
				C512,36.679,503.613,28.292,493.268,28.292z M474.537,446.244H37.463V156.487h437.073V446.244z M474.537,119.024H37.463V65.756
				h437.073V119.024z"/>
			<circle cx="71.455" cy="92.39" r="11.44"/>
			<circle cx="108.082" cy="92.39" r="11.44"/>
			<circle cx="144.709" cy="92.39" r="11.44"/>
			<path d="M428.181,318.4H267.756c-10.345,0-18.732,8.387-18.732,18.732s8.387,18.732,18.732,18.732h160.425
				c10.345,0,18.732-8.387,18.732-18.732S438.526,318.4,428.181,318.4z"/>
			<path d="M428.181,376.136H267.756c-10.345,0-18.732,8.387-18.732,18.732c0,10.345,8.387,18.732,18.732,18.732h160.425
				c10.345,0,18.732-8.387,18.732-18.732C446.912,384.523,438.526,376.136,428.181,376.136z"/>
		</g>
	</g>
</g>
</svg>